<svg width="26" height="26" viewBox="0 0 26 26" fill="none" xmlns="http://www.w3.org/2000/svg">
    <path opacity="0.8" d="M23.2499 10.9614H21.75V9.46145C21.75 9.04896 21.4156 8.71147 21 8.71147C20.5844 8.71147 20.25 9.0474 20.25 9.46145V10.9614H18.7501C18.3376 10.9614 18.0001 11.2989 18.0001 11.7114C18.0001 12.1239 18.336 12.4614 18.7501 12.4614H20.25V13.9613C20.25 14.3769 20.5875 14.7113 21 14.7113C21.4125 14.7113 21.75 14.3754 21.75 13.9613V12.4614H23.2499C23.6656 12.4614 23.9999 12.127 23.9999 11.7114C23.9999 11.2958 23.6656 10.9614 23.2499 10.9614Z" fill="#828891"/>
    <path d="M11.0003 12.7112C13.2096 12.7112 15.0002 10.9203 15.0002 8.71132C15.0002 6.50232 13.2096 4.71143 11.0003 4.71143C8.79099 4.71143 7.00041 6.50232 7.00041 8.71132C7.00041 10.9203 8.79099 12.7112 11.0003 12.7112ZM12.5846 14.2112H9.41597C6.42574 14.2112 4.00049 16.6361 4.00049 19.6267C4.00049 20.2266 4.48548 20.711 5.08358 20.711H16.9176C17.5158 20.711 18.0001 20.2266 18.0001 19.6267C18.0001 16.6361 15.5752 14.2112 12.5846 14.2112Z" fill="#353B40"/>
</svg>
