<svg width="7" height="10" viewBox="0 0 7 10" fill="none" xmlns="http://www.w3.org/2000/svg">
    <path d="M2.29086 0.218731L6.47877 4.4534L6.47877 4.45528C6.61717 4.60195 6.69438 4.79692 6.69438 4.99969C6.69438 5.20245 6.61717 5.39742 6.47877 5.5441L6.47692 5.54598L2.29086 9.78033C2.15181 9.92098 1.96323 10 1.7666 10C1.56997 10 1.38138 9.92098 1.24234 9.78033L0.71715 9.24905C0.578113 9.10839 0.500004 8.91761 0.500004 8.7187C0.500004 8.51978 0.578113 8.32901 0.71715 8.18835L3.83955 5.00031L0.717149 1.81259C0.578112 1.67193 0.500003 1.48116 0.500003 1.28224C0.500003 1.08333 0.578112 0.892555 0.717149 0.751894L1.24234 0.220607C1.38114 0.0797067 1.56958 0.000352354 1.76621 1.38451e-06C1.96285 -0.000350539 2.15157 0.0783285 2.29086 0.218731Z" fill="#828891"/>
</svg>
