<svg width="7" height="10" viewBox="0 0 7 10" fill="none" xmlns="http://www.w3.org/2000/svg">
    <path d="M4.70914 9.78127L0.521226 5.5466V5.54472C0.382834 5.39805 0.305618 5.20308 0.305618 5.00031C0.305618 4.79755 0.382834 4.60258 0.521226 4.4559L0.523079 4.45402L4.70914 0.219668C4.84819 0.0790164 5.03677 0 5.2334 0C5.43003 0 5.61862 0.0790164 5.75766 0.219668L6.28285 0.750955C6.42189 0.891615 6.5 1.08239 6.5 1.2813C6.5 1.48022 6.42189 1.67099 6.28285 1.81165L3.16045 4.99969L6.28285 8.18741C6.42189 8.32807 6.5 8.51884 6.5 8.71776C6.5 8.91667 6.42189 9.10745 6.28285 9.24811L5.75766 9.77939C5.61886 9.92029 5.43042 9.99965 5.23378 10C5.03715 10.0004 4.84843 9.92167 4.70914 9.78127Z" fill="#828891"/>
</svg>
