<svg width="33" height="32" viewBox="0 0 33 32" fill="none" xmlns="http://www.w3.org/2000/svg">
    <rect x="0.493164" width="32" height="32" rx="4" fill="#F1F2F3"/>
    <path d="M9.38036 20.2769C9.13243 20.5232 8.99316 20.8572 8.99316 21.2055C8.99316 21.5538 9.13243 21.8878 9.38036 22.1341L10.3155 23.0627C10.5635 23.3089 10.8998 23.4472 11.2506 23.4472C11.6013 23.4472 11.9376 23.3089 12.1856 23.0627L16.3932 18.8844L13.5879 16.0986L9.38036 20.2769ZM23.406 10.0631L22.4709 9.1345C22.2228 8.8883 21.8865 8.75 21.5358 8.75C21.1851 8.75 20.8487 8.8883 20.6007 9.1345L16.3932 13.3128L19.1985 16.0986L23.406 11.9203C23.6539 11.674 23.7932 11.34 23.7932 10.9917C23.7932 10.6434 23.6539 10.3094 23.406 10.0631Z" fill="#CF0E08"/>
    <path d="M23.406 20.2769C23.6539 20.5232 23.7932 20.8572 23.7932 21.2055C23.7932 21.5538 23.6539 21.8878 23.406 22.1341L22.4709 23.0627C22.2228 23.3089 21.8865 23.4472 21.5358 23.4472C21.1851 23.4472 20.8487 23.3089 20.6007 23.0627L9.38036 11.9203C9.13243 11.674 8.99316 11.34 8.99316 10.9917C8.99316 10.6434 9.13243 10.3094 9.38036 10.0631L10.3155 9.1345C10.5635 8.8883 10.8998 8.75 11.2506 8.75C11.6013 8.75 11.9376 8.8883 12.1856 9.1345L23.406 20.2769Z" fill="#CF0E08"/>
</svg>
