<svg width="32" height="32" viewBox="0 0 32 32" fill="none" xmlns="http://www.w3.org/2000/svg">
    <rect width="32" height="32" rx="4" fill="#F1F2F3"/>
    <path opacity="0.3" d="M25.644 15.0843C24.7485 13.2589 23.3591 11.7211 21.6335 10.6456C19.908 9.57011 17.9155 9 15.8822 9C13.8489 9 11.8564 9.57011 10.1309 10.6456C8.40532 11.7211 7.0159 13.2589 6.12039 15.0843C6.04126 15.2391 6 15.4105 6 15.5844C6 15.7583 6.04126 15.9297 6.12039 16.0845C7.0159 17.91 8.40532 19.4477 10.1309 20.5232C11.8564 21.5987 13.8489 22.1688 15.8822 22.1688C17.9155 22.1688 19.908 21.5987 21.6335 20.5232C23.3591 19.4477 24.7485 17.91 25.644 16.0845C25.7203 15.9289 25.76 15.7578 25.76 15.5844C25.76 15.411 25.7203 15.24 25.644 15.0843ZM15.8884 20.524C14.9114 20.524 13.9564 20.2343 13.1441 19.6915C12.3318 19.1488 11.6987 18.3773 11.3248 17.4747C10.9509 16.5721 10.8531 15.5789 11.0437 14.6208C11.2343 13.6626 11.7048 12.7824 12.3956 12.0916C13.0864 11.4008 13.9665 10.9304 14.9247 10.7398C15.8829 10.5492 16.8761 10.647 17.7787 11.0209C18.6812 11.3947 19.4527 12.0278 19.9955 12.8401C20.5382 13.6524 20.8279 14.6075 20.8279 15.5844C20.8295 16.2346 20.7028 16.8788 20.4549 17.4799C20.207 18.0811 19.8429 18.6273 19.3834 19.0874C18.9239 19.5475 18.378 19.9123 17.7772 20.1609C17.1764 20.4096 16.5324 20.5371 15.8822 20.5363L15.8884 20.524Z" fill="#0090FF"/>
    <path d="M19.0618 16.4489C18.9499 16.8657 18.757 17.2563 18.4941 17.5986C18.2312 17.9408 17.9035 18.2279 17.5297 18.4435C17.1559 18.659 16.7433 18.7989 16.3154 18.855C15.8875 18.9111 15.4528 18.8824 15.036 18.7705C14.6193 18.6586 14.2286 18.4657 13.8864 18.2028C13.5442 17.94 13.2571 17.6123 13.0415 17.2384C12.8259 16.8646 12.6861 16.452 12.63 16.0241C12.5738 15.5963 12.6025 15.1615 12.7144 14.7448C13.0311 14.9738 13.4191 15.0824 13.8087 15.051C14.1982 15.0197 14.5639 14.8504 14.8398 14.5737C15.1158 14.297 15.2841 13.9309 15.3144 13.5413C15.3447 13.1516 15.235 12.7639 15.0052 12.4479C15.8395 12.2115 16.7334 12.3153 17.4914 12.7365C18.2493 13.1578 18.8096 13.8621 19.0494 14.6954C19.2099 15.2752 19.2099 15.8876 19.0494 16.4674L19.0618 16.4489Z" fill="#0090FF"/>
</svg>
