<svg width="50" height="50" viewBox="0 0 50 50" fill="none" xmlns="http://www.w3.org/2000/svg">
    <path d="M0 4.73684L45.259 0L50 45.2193L4.741 50L0 4.73684H0Z" fill="#FFCE33"/>
    <path d="M42.7127 11.0525L42.0981 5.30687L41.9664 5.26301C40.7812 4.86828 39.552 4.56126 38.3229 4.42968C37.0937 4.2981 35.9085 4.2981 34.7232 4.38582C33.0112 4.56126 31.6065 4.91214 30.5968 5.43845C29.4554 6.05249 28.7531 6.71038 28.358 7.63144C28.0946 8.20161 27.919 8.68407 27.8751 9.38582C27.8312 10.1314 27.8751 11.1402 28.0068 12.6753L28.6653 19.1227C28.8409 20.7893 29.0604 21.9297 29.3238 22.6753C29.5871 23.4209 29.8944 23.7279 30.3334 24.1665L30.4651 24.2981C31.1236 24.9999 32.0015 25.4823 33.099 25.7016C33.977 25.9209 35.3378 26.1402 37.0498 25.9648C38.3668 25.8332 39.5959 25.3507 40.7373 24.8683C41.9225 24.3858 42.9761 23.7279 43.9418 22.9385L44.0296 22.8507L43.02 13.4648L35.8207 14.2104L36.2158 18.1139L38.718 17.8507L38.9814 20.4385C38.6302 20.8332 37.7083 21.2279 36.4792 21.3595C35.7329 21.4472 35.2061 21.2718 34.811 20.877C34.4159 20.4385 34.1964 19.7806 34.0648 18.7279L33.3624 11.9297C33.2746 10.9209 33.3185 10.2192 33.6258 9.69284C33.8892 9.21038 34.4159 8.94723 35.1183 8.85951C35.8207 8.77179 36.3475 8.94723 36.6986 9.2981C37.0937 9.69284 37.3132 10.263 37.401 11.1402L37.4449 11.4911L42.7127 11.0525V11.0525ZM14.7057 28.1577C16.4177 27.9823 17.6907 27.456 18.4809 27.0613C19.4906 26.5788 20.2368 25.9648 20.7636 25.1314L20.8514 24.9999C21.1587 24.4735 21.4221 24.0788 21.5099 23.3332C21.5977 22.4999 21.7294 22.4121 21.6855 21.7104C21.5538 20.3069 21.1587 19.2981 20.4563 18.4209C19.8857 17.7192 19.1394 17.2367 18.1736 16.9735C18.876 16.5349 19.4467 15.9648 19.7979 15.2192C20.2807 14.2981 20.4124 13.3332 20.2807 12.1051C20.0612 10.1314 19.4028 8.94722 17.998 8.02617C16.725 7.19284 14.7496 6.88582 12.1596 7.14898L3.99452 8.02617L4.3896 11.6665L4.56519 11.7104C4.91638 11.7542 5.17977 11.8858 5.35536 12.0613C5.53095 12.2806 5.61875 12.7192 5.70654 13.5086L6.7162 23.2455C6.804 24.0349 6.804 24.4735 6.6723 24.7367C6.58451 24.956 6.32112 25.1314 5.96993 25.2192L5.79434 25.263L6.18942 28.9911L14.7057 28.1577V28.1577ZM15.4519 19.7806C15.9348 20.1314 16.1543 20.6139 16.2421 21.4034C16.3299 22.1928 16.1982 22.7192 15.847 23.1139C15.4958 23.5086 14.8813 23.7718 13.9594 23.8595L12.423 24.0349L11.9401 19.6051L13.3887 19.4735C14.3106 19.342 15.013 19.4297 15.4519 19.7806V19.7806ZM14.6179 14.649C14.3106 14.956 13.696 15.1753 12.7741 15.3069L11.4572 15.4385L11.0621 11.7542L12.3791 11.6227C13.257 11.5349 13.9155 11.6227 14.3106 11.8858C14.7057 12.1928 14.9252 12.5876 14.9691 13.2893C15.0569 13.9911 14.8813 14.342 14.6179 14.649V14.649ZM20.6758 8.77179C20.7197 8.99108 20.7636 9.16652 20.8075 9.42968L23.3975 20.6139L23.4414 20.7893L26.2948 20.4823L26.5143 8.90336V7.6753C26.4265 6.7981 26.1192 6.22793 25.5046 5.74547C24.9339 5.30687 24.1438 5.08758 23.2658 5.21915C22.3439 5.30687 21.6855 5.65775 21.2026 6.22793C20.7197 6.84196 20.5441 7.456 20.6319 8.33319L20.6758 8.64021V8.77179V8.77179ZM23.2219 22.9385C22.739 23.5086 22.5634 24.1665 22.6073 24.9121C22.6951 25.6139 23.0024 26.2279 23.617 26.7104C24.1877 27.1928 24.8461 27.3683 25.5924 27.3244C26.3387 27.2367 26.9533 26.9297 27.3922 26.3595C27.8751 25.7893 28.0507 25.1314 27.9629 24.3858C27.8751 23.6402 27.5678 23.0262 26.9972 22.5876C26.4265 22.1051 25.768 21.9297 25.0217 22.0174C24.3194 22.0174 23.7048 22.3683 23.2219 22.9385V22.9385ZM17.6029 36.7981C18.0858 36.4911 18.4809 36.0525 18.7443 35.5262C19.0955 34.8244 19.2272 34.0788 19.1394 33.1577C18.9638 31.6665 18.4809 30.7016 17.4274 30.0437C16.5055 29.4297 15.1446 29.2542 13.0375 29.4735L6.45281 30.1753L6.7601 32.9385H6.93569C7.19908 32.9823 7.37467 33.07 7.46247 33.2016C7.59417 33.377 7.63806 33.6841 7.72586 34.2542L8.47213 41.4911C8.51603 42.0613 8.51603 42.456 8.42823 42.6314C8.34043 42.763 8.20874 42.8946 7.94535 42.9823L7.76976 43.0262L8.07704 45.9209L14.8813 45.2192C16.9006 44.9999 18.3492 44.4735 19.1394 43.6841C20.0173 42.8069 20.3246 41.842 20.149 40.3069C20.0173 39.2542 19.754 38.5525 19.2272 37.8946C18.7882 37.3683 18.2614 37.0174 17.6029 36.7981V36.7981ZM12.423 38.8156L13.8716 38.6841C14.574 38.5963 15.0569 38.6841 15.3641 38.9472C15.7153 39.2104 15.847 39.5174 15.9348 40.1314C15.9787 40.7016 15.9348 41.0963 15.6714 41.3595C15.408 41.6227 14.9691 41.842 14.3106 41.8858L12.7741 42.0613L12.423 38.8156V38.8156ZM14.7496 34.9999C14.5301 35.2192 14.0472 35.3946 13.4326 35.4385L12.1157 35.57L11.8523 32.9385L13.1692 32.8069C13.8277 32.7192 14.3106 32.8069 14.574 33.0262C14.8374 33.2016 15.013 33.4209 15.0569 34.0349C15.0569 34.5613 14.9252 34.7806 14.7496 34.9999ZM37.4888 42.8507L37.1815 39.956L37.3571 39.9121C37.5766 39.8683 37.7522 39.7367 37.7961 39.6051C37.8839 39.4297 37.8839 39.0788 37.84 38.5525L37.6205 36.6227L33.8892 30.9648C33.7136 30.7016 33.5819 30.5262 33.4063 30.3946C33.2746 30.3069 33.1429 30.2192 33.0551 30.1753L32.8795 30.1314L32.5722 27.3683L37.3132 26.9297L37.5327 28.9034C37.5766 29.2981 37.6205 29.6051 37.7083 29.8683C37.7961 30.1314 37.8839 30.3507 38.0156 30.57L39.0252 32.0613L39.7276 30.3946C39.8154 30.1753 39.8593 29.9121 39.9032 29.649V28.6402L39.6837 26.6665L44.293 26.1841L44.6003 28.9472L44.4686 29.0349C44.3369 29.0788 44.2491 29.1665 44.1613 29.2981C44.0296 29.4297 43.9418 29.649 43.8101 29.9121L41.3518 36.2279L41.5713 38.1577C41.6152 38.6841 41.703 38.9911 41.8347 39.1665C41.9225 39.2981 42.0981 39.3858 42.3615 39.3858H42.5371L42.8444 42.2806L37.4888 42.8507V42.8507ZM27.041 40.7455C27.5678 40.7016 27.8312 40.5262 28.0068 40.1753C28.2263 39.7806 28.2702 39.2981 28.1824 38.5086L27.5678 32.456C27.48 31.7981 27.3922 31.4472 27.2605 31.2279C27.1288 31.0525 26.9533 30.9209 26.6899 30.877L26.5143 30.8332L26.2509 28.3332L32.1332 27.456L32.4405 30.1753L32.3088 30.263C32.0015 30.3946 31.826 30.57 31.7382 30.7016C31.6504 30.877 31.6504 31.1402 31.6943 31.6665L32.3527 38.0262C32.5722 40.0437 32.3088 41.3156 31.5187 42.3683C30.7724 43.377 29.4116 43.9911 27.3922 44.2104C25.3729 44.4297 23.9243 44.0788 22.9585 43.2893C21.9489 42.4121 21.4221 41.2279 21.2026 39.2104L20.5441 32.8507C20.5002 32.3683 20.4124 32.1051 20.2807 31.9297C20.1929 31.7981 19.9734 31.6665 19.6223 31.6227L19.4467 31.5788L19.1394 28.8595L25.0656 28.5086L25.329 31.0086L25.1973 31.0963C24.9339 31.2279 24.8022 31.3595 24.7144 31.5788C24.6266 31.7981 24.6267 32.1928 24.6705 32.8069L25.329 38.9034C25.4168 39.649 25.5924 40.1314 25.8558 40.4823C26.1192 40.7893 26.3826 40.9209 26.9094 40.8332L27.041 40.7455V40.7455ZM41.9664 4.0788C42.0103 4.38582 41.7908 4.64898 41.4835 4.64898C41.1763 4.69284 40.9129 4.47354 40.869 4.16652C40.8251 3.85951 41.0446 3.64021 41.3518 3.59635C41.6591 3.55249 41.9225 3.77179 41.9664 4.0788ZM41.0007 4.16652C41.0446 4.38582 41.2202 4.56126 41.4396 4.56126C41.6591 4.5174 41.8347 4.34196 41.7908 4.12266C41.7469 3.90337 41.5713 3.72793 41.3518 3.72793C41.1324 3.72793 41.0007 3.94722 41.0007 4.16652ZM41.3518 4.38582H41.2202L41.1763 3.85951C41.2202 3.85951 41.308 3.81565 41.3958 3.81565H41.5713C41.6152 3.81565 41.6152 3.85951 41.6152 3.90337C41.6152 3.94722 41.5713 3.99108 41.5274 4.03494C41.5713 4.03494 41.6152 4.0788 41.6152 4.16652C41.703 4.34196 41.703 4.34196 41.703 4.38582H41.5713C41.5713 4.38582 41.5274 4.34196 41.5274 4.25424C41.5274 4.21038 41.4835 4.16652 41.3958 4.16652H41.3518V4.38582V4.38582ZM41.3518 4.12266C41.4835 4.12266 41.5274 4.0788 41.5274 4.03494C41.5274 3.94722 41.4835 3.94722 41.3958 3.94722H41.308L41.3518 4.12266V4.12266ZM23.2219 22.9385C22.739 23.5086 22.5634 24.1665 22.6073 24.9121C22.6951 25.6139 23.0024 26.2279 23.617 26.7104C24.1877 27.1928 24.8461 27.3683 25.5924 27.3244C26.3387 27.2367 26.9533 26.9297 27.3922 26.3595C27.8751 25.7893 28.0507 25.1314 27.9629 24.3858C27.8751 23.6402 27.5678 23.0262 26.9972 22.5876C26.4265 22.1051 25.768 21.9297 25.0217 22.0174C24.3194 22.0174 23.7048 22.3683 23.2219 22.9385V22.9385Z" fill="black"/>
</svg>
