<svg width="26" height="26" viewBox="0 0 26 26" fill="none" xmlns="http://www.w3.org/2000/svg">
    <path opacity="0.3" d="M11.1099 6.73457C12.1221 6.73457 13.1031 7.08556 13.8855 7.72773C14.668 8.3699 15.2036 9.26352 15.4011 10.2563C15.5986 11.2491 15.4457 12.2797 14.9685 13.1724C14.4914 14.0651 13.7194 14.7648 12.7842 15.1521C11.849 15.5395 10.8084 15.5906 9.83975 15.2968C8.87109 15.0029 8.03428 14.3823 7.47191 13.5407C6.90954 12.699 6.65639 11.6884 6.75562 10.681C6.85484 9.67363 7.30028 8.73182 8.01606 8.01606C8.42138 7.60848 8.90353 7.28535 9.43459 7.06538C9.96565 6.84541 10.5351 6.73297 11.1099 6.73457V6.73457ZM11.1099 4C7.18304 4 4 7.18304 4 11.1099C4 15.0367 7.18304 18.2198 11.1099 18.2198C15.0367 18.2198 18.2198 15.0367 18.2198 11.1099C18.2198 7.18304 15.0367 4 11.1099 4Z" fill="#0090FF"/>
    <path d="M21.2587 20.2945L20.2914 21.2619C20.2154 21.3383 20.1252 21.3989 20.0257 21.4402C19.9263 21.4816 19.8197 21.5029 19.712 21.5029C19.6043 21.5029 19.4977 21.4816 19.3982 21.4402C19.2988 21.3989 19.2085 21.3383 19.1326 21.2619L15.7246 17.8539C15.6485 17.7776 15.5882 17.6869 15.5471 17.5872C15.5061 17.4875 15.4851 17.3807 15.4854 17.2728V16.7157L16.7159 15.4851H17.2731C17.3809 15.4848 17.4877 15.5058 17.5874 15.5469C17.6872 15.588 17.7778 15.6483 17.8542 15.7244L21.2621 19.1323C21.4152 19.2872 21.5008 19.4964 21.5002 19.7141C21.4995 19.9319 21.4127 20.1406 21.2587 20.2945V20.2945Z" fill="#0090FF"/>
</svg>
